<?xml version="1.0" standalone="no"?>
<!DOCTYPE svg PUBLIC "-//W3C//DTD SVG 20010904//EN"
 "http://www.w3.org/TR/2001/REC-SVG-20010904/DTD/svg10.dtd">
<svg version="1.0" xmlns="http://www.w3.org/2000/svg"
 width="2048.000000pt" height="2048.000000pt" viewBox="0 0 2048.000000 2048.000000"
 preserveAspectRatio="xMidYMid meet">

<g transform="translate(0.000000,2048.000000) scale(0.100000,-0.100000)"
fill="#000000" stroke="none">
<path d="M9870 19980 c-19 -4 -96 -11 -170 -14 -160 -8 -352 -23 -470 -36 -47
-6 -125 -15 -175 -21 -170 -20 -304 -40 -532 -79 -195 -33 -582 -119 -788
-174 -1205 -323 -2360 -883 -3324 -1610 -74 -55 -146 -110 -161 -121 -105 -80
-357 -291 -525 -441 -152 -137 -561 -541 -690 -684 -374 -412 -698 -836 -1007
-1315 -312 -484 -630 -1106 -843 -1645 -241 -611 -433 -1284 -535 -1875 -6
-33 -15 -82 -20 -110 -29 -156 -86 -606 -100 -790 -28 -354 -34 -498 -34 -825
0 -328 6 -473 34 -826 12 -161 66 -595 90 -729 6 -33 15 -85 20 -115 17 -105
28 -166 49 -265 12 -55 28 -132 36 -171 34 -160 138 -558 191 -727 117 -373
232 -690 365 -1000 654 -1528 1691 -2866 3010 -3884 1056 -814 2297 -1416
3564 -1729 55 -14 125 -31 155 -39 155 -40 608 -127 815 -155 555 -77 916
-104 1410 -104 248 0 443 5 591 16 251 19 510 44 599 58 33 5 103 14 155 21
81 10 224 32 435 69 91 15 308 61 455 96 1466 345 2875 1049 4010 2003 434
365 892 823 1236 1236 164 197 385 484 467 605 9 14 31 45 48 70 465 661 864
1428 1154 2215 118 320 244 733 315 1030 46 197 97 430 115 531 69 385 113
728 135 1029 6 83 16 209 22 280 15 168 15 802 0 970 -6 72 -16 198 -22 280
-32 444 -112 965 -221 1435 -75 320 -187 709 -284 985 -25 72 -55 157 -67 190
-23 67 -154 395 -185 465 -101 227 -141 312 -229 490 -183 371 -360 678 -590
1025 -186 281 -201 302 -459 644 -364 482 -1004 1133 -1550 1576 -92 75 -409
314 -510 385 -1088 766 -2327 1305 -3620 1575 -178 37 -508 94 -660 114 -49 7
-121 16 -160 21 -161 21 -313 36 -606 57 -240 18 -880 27 -939 13z m472 -5296
c484 -67 945 -302 1388 -706 519 -474 784 -999 783 -1553 0 -159 -11 -230 -59
-373 -61 -186 -215 -443 -388 -648 -101 -121 -320 -342 -443 -447 -49 -42
-486 -376 -973 -743 -946 -712 -978 -738 -1170 -910 -359 -323 -567 -607 -631
-864 -75 -298 83 -636 384 -818 172 -104 407 -127 579 -58 116 47 170 88 313
236 480 497 881 835 1655 1395 550 398 890 669 1188 946 565 527 887 1119 993
1829 18 118 22 193 23 400 1 302 -5 462 -19 473 -5 4 7 6 27 4 47 -4 51 -9 50
-47 0 -19 5 -33 14 -37 8 -3 14 -9 14 -15 0 -5 -6 -6 -12 -3 -7 4 -5 0 5 -8
21 -17 22 -31 3 -24 -10 4 -13 1 -9 -8 3 -8 10 -12 16 -8 6 4 8 0 5 -8 -7 -18
13 -37 35 -33 9 1 19 -2 22 -6 3 -5 -4 -7 -16 -5 -16 3 -18 1 -10 -8 6 -8 6
-18 1 -27 -14 -22 -12 -30 4 -24 11 4 14 -2 11 -25 -2 -17 1 -31 6 -31 6 0 8
4 5 9 -3 4 3 18 13 30 18 21 19 21 24 1 3 -11 1 -18 -3 -15 -5 3 -11 1 -14 -4
-4 -5 -2 -12 4 -16 15 -10 12 -22 -12 -46 -13 -12 -17 -19 -10 -15 7 4 12 2
12 -6 0 -9 3 -9 10 2 8 12 10 11 10 -6 0 -11 -6 -26 -12 -33 -11 -10 -8 -10
14 0 15 6 24 17 21 23 -15 23 -12 56 5 55 9 0 12 -3 6 -5 -12 -5 -7 -51 7 -60
5 -3 9 -11 9 -17 0 -7 -4 -6 -10 3 -5 8 -10 10 -10 4 0 -6 6 -17 14 -23 11 -9
15 -9 19 1 3 8 6 8 6 2 1 -6 -7 -18 -16 -25 -15 -12 -16 -12 -8 1 8 13 6 13
-8 1 -18 -14 -13 -36 5 -25 8 5 9 1 5 -10 -5 -13 -1 -19 14 -23 16 -4 17 -8 7
-14 -10 -7 -10 -9 2 -9 9 0 22 6 29 13 11 10 11 8 1 -12 -8 -15 -8 -21 -1 -17
6 4 18 0 27 -8 8 -9 11 -16 5 -16 -6 0 -11 -7 -11 -16 0 -8 -5 -12 -10 -9 -8
5 -7 11 1 21 9 11 8 14 -5 14 -10 0 -15 -4 -11 -9 3 -5 1 -12 -5 -16 -5 -3
-10 -12 -10 -18 0 -7 4 -6 10 3 6 10 10 11 10 3 0 -7 8 -13 18 -13 14 0 15 -2
2 -9 -8 -6 -17 -8 -20 -6 -4 2 -7 -2 -7 -10 0 -10 6 -11 24 -4 15 5 22 5 19 0
-4 -5 -3 -11 1 -14 5 -2 3 -3 -3 -1 -7 1 -10 -6 -6 -18 3 -12 1 -19 -4 -15 -6
3 -16 1 -24 -4 -13 -9 -13 -10 0 -7 8 3 24 -4 37 -15 16 -15 20 -24 13 -37
-11 -20 -4 -31 16 -23 9 3 14 -1 14 -12 0 -9 4 -13 10 -10 6 3 7 -1 4 -9 -3
-9 -10 -16 -16 -16 -5 0 -6 5 -3 10 3 6 1 10 -4 10 -16 0 -14 -9 8 -35 13 -18
21 -21 30 -12 8 8 11 7 11 -5 0 -12 -7 -15 -26 -12 l-26 5 22 -31 c12 -16 30
-35 41 -40 10 -6 19 -16 19 -23 0 -7 -4 -6 -10 3 -5 8 -10 11 -10 6 0 -5 -12
1 -27 15 -20 17 -23 18 -10 3 9 -11 14 -24 10 -28 -5 -4 -3 -7 2 -5 6 1 21 -3
35 -9 14 -6 19 -11 13 -11 -7 -1 -13 -6 -13 -12 0 -5 6 -7 13 -3 8 5 7 2 -2
-9 -8 -10 -11 -20 -7 -24 3 -3 6 -1 6 5 0 6 7 9 15 6 19 -8 -4 -33 -25 -27 -8
2 -3 -3 13 -12 35 -20 34 -32 -5 -50 -22 -10 -25 -14 -10 -11 22 4 25 -1 25
-37 0 -17 1 -17 18 -1 18 16 28 6 12 -10 -5 -4 -8 -13 -8 -19 0 -7 -9 -11 -20
-10 -20 1 -20 1 -1 -12 17 -13 21 -12 30 0 9 12 11 3 13 -37 1 -29 -1 -46 -5
-38 -4 8 -13 16 -21 18 -11 2 -12 0 -3 -11 7 -8 8 -17 4 -22 -4 -4 5 -5 21 -3
28 5 46 -5 28 -17 -5 -3 -8 -15 -6 -26 3 -15 0 -19 -11 -15 -9 3 -12 1 -9 -4
3 -6 12 -10 20 -10 8 0 17 -5 21 -12 4 -7 3 -8 -4 -4 -15 9 -15 -7 0 -22 8 -8
5 -10 -15 -7 -14 3 -29 0 -33 -7 -5 -7 -2 -9 8 -5 9 3 24 -1 35 -8 10 -8 14
-15 9 -15 -5 0 -5 -6 0 -13 5 -7 1 -4 -8 6 -10 11 -18 14 -18 8 0 -6 -5 -11
-11 -11 -5 0 -7 5 -4 10 3 6 4 10 1 10 -3 0 -8 -5 -11 -10 -3 -6 6 -15 20 -20
14 -5 23 -14 20 -20 -3 -5 -3 -16 2 -22 4 -7 8 -17 8 -23 1 -5 6 -9 12 -8 6 1
9 -6 6 -18 -5 -18 -6 -19 -20 -2 -13 16 -13 16 -3 -4 6 -13 15 -23 20 -23 6 0
10 -9 10 -20 0 -12 -5 -17 -14 -14 -10 4 -12 -2 -8 -22 5 -25 6 -26 18 -9 12
16 13 16 11 -3 0 -11 -5 -18 -9 -16 -4 3 -8 0 -8 -6 0 -6 -4 -9 -8 -6 -4 2 -8
-4 -8 -14 0 -10 6 -16 13 -13 7 3 13 0 13 -5 0 -6 -8 -13 -17 -15 -15 -4 -14
-5 3 -6 11 0 24 3 30 9 6 6 10 3 10 -9 0 -11 -3 -19 -6 -18 -3 1 -5 -2 -5 -8
0 -5 7 -9 15 -7 9 2 11 0 5 -5 -5 -4 -11 -16 -13 -27 -3 -14 1 -17 15 -12 14
6 13 3 -5 -17 -12 -13 -21 -30 -19 -38 2 -8 2 -11 0 -6 -3 4 -10 7 -16 7 -7
-1 -1 -10 12 -20 13 -11 17 -20 10 -20 -7 0 -9 -3 -6 -6 3 -4 2 -15 -3 -25 -8
-15 -7 -17 10 -14 11 2 20 0 20 -5 0 -17 -12 -40 -22 -40 -6 0 -8 7 -4 15 3 8
1 15 -3 15 -5 0 -11 -6 -13 -12 -5 -15 15 -38 32 -38 6 0 8 -5 5 -10 -4 -6
-11 -8 -16 -5 -5 3 -6 -1 -3 -10 5 -11 2 -14 -12 -9 -14 4 -15 3 -6 -4 8 -5
25 -8 38 -6 19 2 23 -1 15 -10 -6 -7 -7 -17 -3 -21 4 -5 1 -5 -6 -1 -7 4 -9
13 -6 19 4 7 3 8 -2 4 -4 -4 -9 -27 -10 -50 0 -23 -4 -50 -7 -59 -15 -38 -16
-48 -7 -53 6 -4 10 -1 10 5 0 6 4 9 10 5 5 -3 7 -22 5 -43 -4 -34 -4 -36 10
-18 8 11 15 16 15 10 -1 -18 -28 -45 -35 -34 -7 12 -25 4 -25 -11 0 -6 4 -8 9
-5 10 6 24 -52 15 -65 -3 -5 0 -9 5 -9 6 0 11 6 11 13 0 8 3 7 9 -3 11 -16 4
-33 -9 -25 -5 3 -11 -4 -15 -15 -4 -11 -12 -18 -18 -14 -7 3 2 -6 18 -20 21
-19 24 -24 9 -17 -16 8 -25 7 -33 -3 -9 -10 -8 -15 4 -19 9 -4 12 -13 8 -23
-5 -14 -3 -16 13 -11 18 7 18 6 2 -6 -10 -8 -15 -16 -12 -19 3 -4 0 -9 -6 -13
-6 -3 -10 -3 -9 2 3 17 -1 33 -9 33 -4 0 -7 -18 -5 -40 1 -22 -2 -40 -7 -40
-4 0 -6 -10 -2 -22 4 -16 2 -19 -9 -13 -8 5 -7 1 3 -11 17 -19 17 -22 -2 -57
-11 -20 -16 -37 -12 -37 5 0 14 10 20 23 6 12 11 17 11 10 1 -7 8 -10 16 -7 8
4 15 2 15 -4 0 -6 -8 -9 -17 -8 -25 4 -32 -12 -22 -46 7 -26 6 -28 -12 -23
-11 4 -19 2 -19 -5 0 -6 5 -8 10 -5 16 10 12 -21 -5 -35 -19 -16 -19 -30 0
-30 10 0 12 6 8 18 -6 15 -5 15 10 3 14 -11 15 -17 6 -28 -7 -8 -18 -12 -25
-9 -21 8 -25 -6 -9 -31 9 -13 13 -28 10 -34 -4 -5 -1 -8 7 -7 18 4 10 -33 -10
-49 -16 -11 -16 -12 0 -13 11 0 15 -5 12 -15 -5 -13 -8 -13 -21 0 -18 19 -27
19 -43 -1 -8 -8 -9 -14 -4 -12 12 3 54 -24 54 -36 0 -4 -7 -3 -15 4 -11 9 -19
8 -37 -4 -18 -13 -19 -16 -5 -16 9 0 17 5 17 12 0 14 13 2 16 -15 1 -7 5 -21
9 -32 4 -11 3 -16 -2 -10 -11 14 -43 18 -43 5 0 -5 6 -10 14 -10 8 0 18 -4 21
-10 3 -6 -1 -7 -9 -4 -11 4 -16 0 -16 -11 0 -9 5 -13 10 -10 11 7 12 3 4 -18
-3 -9 -13 -13 -24 -10 -14 4 -19 0 -17 -14 0 -11 7 -20 14 -20 10 0 10 4 0 16
-10 14 -10 14 5 3 9 -8 22 -11 28 -7 5 3 10 4 10 1 0 -3 -19 -15 -41 -27 -31
-15 -38 -24 -30 -32 13 -13 15 -51 2 -42 -5 3 -12 1 -15 -4 -4 -5 1 -8 11 -7
9 2 20 11 24 22 5 13 7 9 6 -16 0 -19 -2 -29 -4 -23 -3 9 -10 10 -22 3 -10 -5
-20 -8 -22 -7 -2 1 2 -4 10 -10 8 -7 10 -13 5 -13 -13 0 -54 -38 -54 -50 0 -6
5 -10 10 -10 6 0 10 6 10 14 0 7 7 19 15 26 14 11 14 10 6 -14 -7 -17 -7 -26
-1 -26 6 0 10 6 10 13 0 8 3 7 9 -3 10 -15 5 -33 -7 -27 -4 2 -15 -5 -25 -15
-15 -16 -15 -19 -2 -24 8 -4 15 -11 15 -17 0 -6 -3 -7 -7 -4 -10 11 -33 -13
-33 -35 0 -10 5 -16 10 -13 6 3 10 3 11 -2 0 -4 2 -16 4 -26 3 -15 0 -14 -20
5 -12 12 -21 28 -18 35 3 7 1 13 -4 13 -5 0 -9 -14 -9 -30 0 -21 4 -29 13 -26
17 7 16 1 -3 -19 -11 -11 -20 -13 -28 -6 -9 8 -13 7 -13 -4 0 -7 5 -13 11 -12
5 1 10 -7 11 -18 0 -12 6 -19 15 -17 11 3 12 1 3 -8 -14 -15 -33 -5 -33 18 0
12 -3 13 -12 4 -17 -17 -19 -42 -3 -36 7 3 16 1 20 -5 3 -6 0 -11 -7 -11 -10
0 -9 -3 2 -10 12 -8 12 -10 -2 -15 -10 -4 -14 -13 -11 -22 5 -12 3 -14 -7 -8
-10 6 -12 4 -7 -8 4 -11 2 -14 -9 -10 -9 3 -14 -1 -14 -12 0 -9 5 -13 10 -10
11 7 12 3 4 -18 -3 -9 -13 -13 -25 -10 -15 4 -19 0 -19 -23 0 -22 3 -25 9 -14
6 8 7 18 5 22 -9 15 3 8 17 -9 8 -9 9 -14 3 -10 -7 4 -15 0 -18 -9 -4 -10 -13
-13 -25 -9 -17 5 -20 2 -18 -22 1 -19 -2 -27 -11 -25 -8 1 -11 -2 -8 -7 4 -5
1 -11 -6 -14 -7 -2 -5 -3 5 -2 9 2 17 -1 17 -7 0 -5 5 -6 11 -3 6 4 8 12 6 19
-3 6 1 20 9 31 8 10 14 14 14 8 0 -7 -5 -15 -10 -18 -6 -4 -8 -11 -5 -16 4 -5
0 -18 -8 -30 -10 -13 -17 -17 -22 -10 -7 13 -25 5 -25 -10 0 -6 5 -7 10 -4 6
3 10 -4 10 -16 0 -18 -2 -19 -15 -9 -11 9 -15 9 -15 1 0 -7 -4 -9 -10 -6 -6 4
-7 -1 -3 -11 5 -13 2 -15 -15 -9 -12 3 -22 2 -22 -3 0 -12 32 -12 48 1 9 7 11
6 6 -7 -3 -9 -11 -16 -17 -16 -13 0 -47 -30 -47 -42 0 -4 7 -8 15 -8 10 0 12
6 8 18 -6 15 -5 16 12 2 17 -14 18 -13 12 3 -3 9 -2 17 3 17 17 0 11 -25 -10
-43 -12 -10 -26 -15 -32 -11 -14 9 -28 -15 -27 -46 1 -17 3 -19 6 -7 2 9 9 17
14 17 13 0 11 -12 -6 -34 -8 -11 -15 -28 -15 -38 0 -10 -5 -18 -11 -18 -6 0
-9 6 -6 13 8 22 -6 37 -21 21 -7 -8 -8 -14 -2 -14 5 0 10 -7 10 -15 0 -8 -7
-15 -17 -15 -14 0 -15 -2 -1 -17 8 -10 18 -27 22 -38 6 -20 6 -20 -9 -1 -8 11
-15 24 -15 29 0 18 -25 0 -25 -19 -1 -10 -6 -18 -13 -17 -6 2 -9 -4 -6 -12 5
-11 1 -14 -12 -9 -14 4 -15 3 -6 -4 8 -5 25 -8 38 -6 19 2 23 -1 15 -10 -6 -7
-7 -17 -3 -22 4 -4 -1 -2 -10 5 -16 12 -22 9 -19 -11 0 -4 -7 -4 -16 -1 -10 4
-14 2 -9 -5 3 -6 2 -13 -4 -17 -19 -12 -10 -26 13 -21 12 3 16 3 8 0 -11 -5
-11 -8 0 -16 10 -7 9 -8 -5 -4 -11 4 -23 1 -29 -6 -6 -9 -7 -8 -3 5 4 13 0 17
-19 17 -24 0 -33 -18 -18 -34 11 -10 11 -66 0 -73 -6 -4 -8 3 -5 15 4 15 2 22
-9 22 -8 0 -11 -4 -8 -10 3 -5 -1 -10 -11 -10 -14 0 -14 -2 3 -17 10 -10 14
-15 9 -10 -16 11 -26 8 -26 -9 0 -8 4 -13 9 -10 5 3 15 -2 22 -12 10 -13 10
-14 0 -6 -7 7 -21 9 -32 7 -15 -4 -17 -9 -8 -25 9 -17 8 -18 -10 -6 -17 10
-23 10 -33 0 -11 -11 -9 -12 7 -6 19 7 19 7 3 -13 -10 -11 -18 -25 -18 -31 0
-7 -7 -12 -15 -12 -12 0 -13 -5 -4 -26 5 -15 7 -29 4 -32 -3 -3 -5 -1 -5 5 0
6 -9 13 -21 16 -20 5 -20 5 -2 -16 17 -20 17 -20 -14 2 -37 25 -44 18 -11 -11
21 -18 36 -54 17 -42 -5 3 -6 11 -2 17 4 7 0 6 -10 -2 -16 -12 -22 -8 -18 12
1 5 -3 6 -8 3 -5 -3 -8 -14 -6 -24 2 -9 4 -22 4 -29 1 -6 9 -14 19 -16 13 -4
11 -5 -5 -6 -13 0 -23 4 -23 10 0 5 -5 7 -12 3 -8 -5 -9 -2 -5 9 3 10 2 17 -3
17 -12 0 -12 -7 -1 -48 11 -36 6 -40 -20 -16 -16 14 -17 14 -15 0 1 -9 8 -22
14 -28 7 -7 12 -16 12 -22 0 -5 -6 -2 -13 9 -13 17 -14 17 -28 -1 -8 -10 -21
-20 -29 -22 -8 -2 -19 -8 -25 -14 -7 -8 -6 -8 4 -3 10 5 12 4 7 -4 -4 -6 -9
-23 -12 -36 -3 -19 0 -25 13 -25 15 0 16 -2 3 -10 -18 -11 -31 8 -25 39 2 11
0 21 -6 21 -5 0 -10 -7 -10 -15 -1 -8 -2 -21 -3 -27 -1 -7 0 -18 3 -23 3 -6
-2 -2 -11 8 -10 11 -18 14 -18 8 0 -6 -5 -11 -11 -11 -5 0 -7 6 -3 13 4 6 3 9
-1 4 -5 -4 -10 -17 -12 -29 -3 -17 -1 -19 11 -8 9 6 20 9 25 6 15 -10 2 -34
-21 -42 -13 -4 -18 -12 -15 -25 7 -25 -13 -36 -28 -16 -7 10 -21 16 -31 16
-16 -1 -16 -2 -2 -6 18 -5 33 -33 17 -33 -6 0 -7 -5 -3 -12 5 -7 3 -8 -5 -4
-7 5 -10 14 -7 22 8 21 2 17 -29 -17 l-28 -32 29 6 c16 3 23 4 16 1 -6 -3 -10
-10 -7 -15 4 -5 -1 -6 -10 -3 -11 5 -14 2 -9 -11 6 -15 4 -16 -11 -8 -10 6
-26 8 -37 5 -18 -4 -18 -6 -2 -23 10 -11 14 -22 11 -26 -4 -3 -7 -1 -7 6 0 7
-4 10 -9 6 -5 -3 -12 -1 -16 5 -3 5 -12 10 -18 10 -7 0 -4 -5 6 -11 9 -6 14
-15 11 -21 -4 -6 -2 -8 4 -4 6 3 14 1 18 -6 4 -7 4 -10 -1 -6 -4 4 -14 3 -22
-3 -9 -9 -13 -8 -13 0 0 6 -4 11 -9 11 -5 0 -8 -7 -7 -16 0 -9 -6 -19 -14 -21
-12 -4 -12 -3 -1 5 9 7 10 12 2 16 -6 4 -11 2 -11 -4 0 -6 -3 -9 -7 -7 -5 3
-17 0 -28 -4 -19 -9 -19 -9 2 -5 12 2 24 -2 27 -9 5 -13 -40 -28 -47 -16 -2 3
-3 1 -1 -5 1 -6 -3 -17 -9 -24 -9 -10 -9 -11 2 -5 10 6 12 4 7 -4 -6 -9 -11
-9 -21 -1 -8 7 -22 10 -32 7 -14 -4 -13 -5 5 -6 12 0 22 -5 22 -11 0 -5 -8 -7
-17 -3 -16 6 -16 4 1 -15 15 -17 16 -22 5 -22 -8 0 -21 6 -28 13 -8 7 -11 7
-8 1 8 -14 -17 -37 -27 -27 -4 4 -4 -1 0 -12 4 -11 12 -23 18 -27 8 -5 7 -8
-1 -8 -7 0 -17 8 -22 18 -9 15 -10 15 -11 -5 0 -12 5 -25 10 -28 6 -3 10 -11
10 -16 0 -6 -12 3 -27 18 -17 18 -24 22 -20 10 4 -11 2 -17 -6 -16 -26 3 -47
-1 -47 -11 0 -5 7 -7 15 -4 8 4 15 1 15 -5 0 -8 5 -9 19 -1 28 15 35 12 17 -6
-9 -8 -13 -20 -10 -26 4 -7 2 -8 -5 -4 -6 4 -9 13 -5 19 3 7 -3 1 -13 -12 -15
-17 -20 -19 -20 -7 0 9 4 16 9 16 5 0 6 5 3 10 -9 14 -45 -7 -45 -25 0 -18 -1
-18 -33 -6 -23 9 -24 8 -21 -21 2 -16 -3 -39 -11 -51 -8 -12 -15 -17 -15 -11
0 5 -9 10 -20 10 -22 0 -27 -12 -8 -18 6 -2 12 -11 14 -20 1 -11 -3 -15 -13
-11 -10 4 -11 8 -3 13 8 5 4 9 -9 13 -13 3 -19 1 -15 -5 4 -6 1 -8 -7 -6 -8 3
-13 10 -12 16 2 6 -4 9 -12 6 -17 -7 -20 -24 -5 -24 6 0 10 -4 10 -10 0 -5 -6
-10 -14 -10 -16 0 -29 -27 -19 -42 3 -6 1 -8 -5 -4 -5 3 -24 -5 -40 -19 -16
-14 -38 -25 -48 -25 -16 0 -17 -2 -4 -10 13 -8 12 -10 -2 -10 -10 0 -18 5 -18
11 0 6 -7 3 -16 -5 -8 -9 -19 -14 -23 -12 -4 3 -6 -11 -4 -31 l2 -36 -24 33
c-16 22 -25 28 -25 17 0 -9 -8 -20 -17 -26 -26 -14 -10 -23 21 -12 23 9 26 8
26 -12 0 -18 -2 -19 -10 -7 -8 12 -12 13 -19 2 -4 -8 -11 -13 -15 -13 -20 3
-26 -1 -26 -14 0 -8 -5 -15 -11 -15 -6 0 -8 -7 -5 -16 3 -9 2 -12 -5 -9 -5 4
-7 16 -4 28 5 19 4 20 -7 7 -7 -8 -24 -16 -37 -18 -29 -3 -53 -21 -45 -33 3
-5 -7 -9 -21 -9 -21 0 -26 -4 -21 -16 9 -24 -3 -35 -25 -24 -15 9 -19 7 -19
-5 0 -8 -7 -15 -15 -15 -8 0 -15 9 -15 20 0 11 -4 20 -10 20 -6 0 -6 -9 0 -25
5 -14 5 -27 0 -30 -4 -3 -11 3 -13 12 -3 11 -5 7 -6 -10 -1 -25 1 -27 19 -17
14 7 20 7 20 0 0 -5 -7 -10 -16 -10 -8 0 -12 -5 -9 -11 4 -6 1 -10 -6 -8 -30
4 -41 -1 -35 -16 3 -8 1 -15 -4 -15 -6 0 -10 10 -10 22 0 21 -1 21 -20 3 -16
-15 -23 -16 -33 -6 -9 10 -8 11 5 6 12 -5 20 -1 24 9 4 11 13 14 24 11 10 -3
21 -1 25 4 4 7 -1 8 -11 4 -12 -4 -15 -3 -10 5 11 18 -10 14 -30 -5 -10 -10
-22 -18 -26 -18 -5 0 -18 -11 -29 -25 -12 -16 -17 -18 -13 -7 8 23 -9 20 -55
-10 -19 -12 -39 -19 -45 -16 -6 4 -5 -1 3 -10 19 -24 7 -32 -15 -10 -16 17
-17 17 -11 1 5 -13 0 -19 -18 -24 -13 -3 -29 -3 -36 2 -7 4 -9 3 -5 -4 3 -5 0
-13 -6 -16 -7 -3 1 -4 17 -1 25 4 27 3 12 -6 -10 -6 -28 -9 -39 -6 -14 4 -18
2 -14 -9 5 -13 3 -13 -16 0 -14 10 -27 12 -38 6 -10 -5 -21 -6 -24 -2 -4 4 -5
-5 -1 -19 5 -19 2 -28 -10 -33 -9 -3 -14 -10 -10 -15 3 -5 2 -12 -3 -15 -12
-7 -11 26 1 42 5 7 7 15 3 19 -3 3 -6 1 -6 -6 0 -9 -8 -11 -21 -8 -17 4 -19 3
-10 -6 14 -14 15 -30 1 -22 -5 3 -10 1 -10 -4 0 -6 5 -11 12 -11 6 0 9 -2 6
-5 -8 -9 -38 6 -32 16 3 5 0 9 -5 9 -15 0 -14 -30 2 -31 9 0 9 -2 -1 -6 -6 -2
-10 -9 -7 -13 3 -5 -8 -2 -25 7 -24 12 -34 12 -45 3 -8 -7 -15 -9 -15 -4 0 4
-7 -1 -15 -12 -8 -10 -15 -15 -15 -11 0 4 -9 3 -21 -4 -14 -7 -19 -17 -16 -30
5 -17 3 -18 -9 -8 -11 9 -12 15 -3 26 16 18 9 23 -20 12 -22 -9 -23 -11 -8
-27 15 -16 15 -18 -3 -18 -10 0 -17 3 -14 7 2 4 -4 13 -13 20 -12 10 -14 10
-9 2 4 -8 2 -13 -5 -13 -8 0 -7 -5 2 -17 13 -16 12 -17 -3 -5 -13 11 -15 19
-7 39 8 23 8 24 -6 13 -8 -7 -15 -19 -15 -27 0 -8 -5 -11 -12 -8 -7 4 -2 -2
12 -14 l25 -20 -30 2 c-21 2 -30 8 -30 19 0 10 -7 23 -15 30 -12 11 -12 11 -2
-3 10 -13 9 -19 -2 -28 -7 -6 -20 -9 -28 -6 -9 4 -18 -1 -21 -9 -10 -24 -28
-19 -24 7 2 12 2 16 0 9 -3 -7 -9 -10 -14 -7 -5 4 -9 -1 -9 -9 0 -9 -7 -16
-15 -16 -8 0 -15 -5 -15 -11 0 -5 5 -7 12 -3 7 4 8 3 4 -5 -11 -18 -36 6 -29
27 5 14 2 13 -14 -3 -11 -11 -18 -24 -15 -29 2 -4 8 -2 13 5 13 20 11 1 -2
-23 -11 -20 -12 -19 -27 12 -9 18 -18 28 -20 21 -2 -6 -8 -9 -13 -6 -5 4 -6
-1 -3 -9 3 -9 12 -16 20 -16 22 0 16 -16 -7 -17 -11 -1 -23 5 -26 13 -3 7 -10
11 -16 7 -6 -4 -8 0 -4 10 3 10 2 17 -3 17 -12 0 -12 -7 -1 -48 13 -45 -9 -38
-24 8 l-12 34 -6 -34 c-5 -23 -3 -36 5 -42 10 -6 10 -8 0 -8 -7 0 -17 10 -22
23 -5 12 -9 18 -9 13 -1 -6 -7 -1 -15 10 -14 18 -14 18 -12 -8 2 -15 -1 -25
-6 -22 -5 3 -7 12 -5 18 3 7 1 19 -4 27 -7 11 -9 10 -9 -6 0 -15 -2 -17 -9 -6
-7 11 -11 9 -21 -9 -10 -18 -10 -21 2 -14 10 6 11 5 1 -8 -7 -8 -9 -19 -5 -23
4 -5 1 -5 -6 -1 -8 5 -19 1 -27 -10 -8 -11 -15 -14 -15 -7 0 6 6 18 13 25 12
11 12 16 -1 28 -14 13 -15 12 -9 -3 9 -24 -27 -40 -71 -32 -32 6 -34 5 -23 -9
7 -9 17 -13 22 -10 5 3 9 1 9 -4 0 -6 -11 -9 -25 -8 -14 0 -25 6 -25 12 0 6
-7 11 -15 11 -11 0 -12 -4 -5 -11 17 -17 11 -22 -24 -22 -23 1 -32 5 -29 13 3
7 0 13 -6 13 -6 0 -11 -9 -11 -20 0 -11 -4 -20 -10 -20 -5 0 -10 7 -10 16 0
14 -3 14 -15 4 -12 -10 -15 -10 -15 4 0 9 5 16 12 16 6 0 9 3 5 6 -8 9 -48 -6
-42 -16 10 -15 -13 -20 -42 -9 -15 6 -40 12 -54 14 -22 3 -26 0 -22 -14 3 -11
0 -22 -6 -25 -10 -6 -15 6 -12 26 1 9 -58 -12 -65 -23 -3 -5 1 -9 10 -9 8 0
16 5 18 11 2 6 12 2 22 -10 18 -19 17 -20 -19 -15 -21 2 -42 7 -46 10 -5 3 -9
0 -9 -6 0 -6 -5 -8 -12 -4 -7 5 -9 2 -5 -8 9 -25 -33 -9 -43 16 -5 13 -9 15
-9 6 -1 -10 -9 -5 -26 14 -14 16 -25 25 -25 20 0 -6 6 -16 13 -23 7 -8 7 -11
1 -8 -7 4 -17 0 -23 -7 -10 -11 -8 -16 9 -21 12 -4 20 -9 17 -11 -2 -3 -17 0
-32 6 -26 10 -27 11 -10 30 16 18 16 18 -4 13 -14 -3 -21 -13 -21 -29 0 -24
-14 -27 -55 -12 -5 1 -11 -1 -12 -7 -2 -5 1 -10 6 -10 5 0 12 -3 16 -7 10 -10
-17 -4 -43 10 -22 13 -21 35 2 30 6 -2 14 2 16 7 3 6 -6 12 -19 13 -15 2 -21
0 -17 -7 4 -7 -1 -11 -13 -11 -12 0 -21 -5 -21 -11 0 -5 5 -7 10 -4 5 3 10 0
10 -8 0 -7 -7 -14 -15 -14 -8 0 -13 2 -10 5 2 3 -1 14 -7 26 -12 21 -12 21
-19 -4 -6 -22 -7 -21 -8 10 -1 29 -3 32 -12 17 -5 -9 -7 -22 -4 -27 3 -5 0 -7
-9 -4 -9 4 -13 15 -10 32 l4 27 -14 -25 c-8 -13 -12 -33 -10 -43 3 -18 2 -18
-14 -5 -31 27 -42 30 -36 11 5 -16 4 -16 -8 -2 -7 9 -19 15 -26 13 -7 -1 -8 0
-2 3 5 2 10 12 9 21 0 11 -2 13 -6 4 -3 -9 -9 -10 -17 -3 -10 8 -12 3 -10 -22
2 -17 1 -23 -2 -12 -3 11 -9 29 -14 40 -6 11 -17 40 -25 65 -51 147 -160 272
-295 339 -108 53 -195 71 -343 71 -143 0 -232 -18 -345 -71 -90 -42 -139 -76
-218 -151 -28 -27 -59 -50 -68 -52 -10 -1 -22 -9 -27 -17 -7 -12 -9 -11 -9 3
0 9 -3 24 -7 33 -5 15 -3 16 15 6 15 -8 22 -8 22 -1 0 5 -6 10 -12 11 -64 4
-81 3 -85 -5 -4 -5 0 -6 7 -1 9 5 11 4 6 -4 -5 -8 -15 -6 -36 9 -15 11 -33 20
-40 20 -6 0 -8 5 -5 11 5 7 12 6 23 -4 30 -25 48 -30 23 -7 -17 17 -34 23 -58
22 -24 -2 -32 1 -28 9 5 7 -1 6 -16 -2 -32 -17 -59 -21 -59 -8 0 5 5 7 10 4 6
-3 10 0 11 7 0 10 2 10 6 1 3 -10 8 -10 19 1 16 17 18 32 5 40 -5 3 -8 -2 -7
-11 1 -11 -8 -17 -26 -18 -18 -1 -28 3 -28 12 0 8 4 11 10 8 6 -3 7 1 4 9 -3
9 -10 16 -16 16 -5 0 -6 -4 -3 -10 3 -5 -3 -10 -14 -10 -12 0 -21 4 -21 8 0 5
-6 9 -12 10 -51 4 -54 6 -51 31 3 23 2 22 -11 -6 -16 -36 -21 -39 -32 -21 -4
6 -3 8 3 5 6 -4 13 0 17 8 3 9 0 15 -9 15 -10 0 -12 6 -8 18 6 15 5 15 -10 3
-15 -12 -17 -12 -11 4 5 13 4 16 -4 11 -7 -4 -12 -14 -12 -22 0 -10 -10 -5
-32 15 -27 25 -34 28 -41 16 -4 -8 -13 -15 -20 -15 -8 0 -7 3 2 9 15 10 8 41
-9 41 -6 0 -9 -4 -6 -9 7 -11 -14 -20 -31 -13 -20 7 -15 22 5 16 14 -5 15 -4
2 5 -14 10 -7 16 13 12 5 -1 6 3 2 9 -5 8 -11 8 -19 1 -12 -10 -65 -6 -76 6
-3 3 5 3 18 0 15 -4 22 -1 22 10 0 10 -6 14 -18 11 -11 -3 -30 0 -43 8 -18 9
-27 10 -38 1 -12 -10 -12 -9 -3 10 18 34 15 46 -8 33 -19 -10 -25 -6 -21 14 1
5 -5 4 -13 -4 -13 -10 -16 -10 -16 4 0 9 -5 16 -11 16 -5 0 -7 -4 -4 -10 4 -6
-1 -7 -11 -3 -12 4 -15 3 -10 -5 5 -8 2 -10 -8 -6 -20 8 -20 18 -3 36 12 11
12 16 0 27 -12 11 -14 10 -11 -4 2 -10 -3 -20 -10 -22 -8 -3 -10 1 -6 12 5 12
2 16 -12 13 -14 -2 -18 2 -16 15 2 9 -1 17 -5 16 -25 -4 -63 2 -63 11 0 5 6 7
14 4 8 -3 17 0 22 7 4 8 3 10 -5 5 -6 -4 -17 -4 -24 1 -7 5 -29 9 -49 8 -21 0
-38 3 -38 7 0 8 16 12 33 9 5 -1 6 3 2 8 -3 6 -13 7 -23 4 -15 -6 -16 -5 -2
12 14 17 14 18 -7 7 -17 -9 -22 -9 -27 3 -3 8 -3 23 0 33 4 13 3 14 -4 4 -7
-11 -10 -11 -15 2 -4 9 -12 16 -19 15 -10 0 -10 -2 0 -6 22 -9 13 -25 -10 -18
-23 7 -23 7 -3 -9 17 -13 17 -15 2 -10 -10 4 -23 16 -29 27 -8 16 -7 23 8 34
10 7 14 13 8 13 -15 0 -30 -14 -38 -35 -5 -13 -10 -15 -13 -7 -3 6 -11 12 -18
12 -8 0 -17 4 -20 10 -3 6 1 7 9 4 9 -3 16 -1 16 5 0 6 -6 11 -14 11 -10 0
-13 7 -11 21 3 17 0 19 -18 13 -19 -6 -20 -5 -8 10 7 9 9 16 3 16 -5 0 -16
-10 -24 -22 -11 -17 -16 -19 -23 -8 -5 9 -4 11 3 6 11 -6 15 5 11 30 0 4 4 10
9 13 5 3 2 14 -7 23 -16 16 -17 15 -14 -20 2 -20 0 -31 -3 -24 -3 6 -11 9 -16
6 -6 -4 -8 -2 -4 4 3 6 2 13 -4 17 -7 4 -7 13 1 28 10 21 9 21 -10 -2 -12 -13
-21 -18 -21 -13 0 6 5 14 10 17 14 9 12 22 -4 28 -10 4 -13 1 -9 -9 3 -8 -1
-14 -9 -14 -10 0 -14 10 -13 33 1 21 -3 34 -11 34 -6 0 -10 -7 -6 -15 3 -10 0
-13 -9 -10 -8 3 -13 13 -13 22 1 9 -2 16 -6 16 -5 0 -7 8 -5 17 1 10 0 12 -2
6 -3 -7 -13 -13 -24 -13 -11 0 -18 -4 -14 -10 3 -5 12 -7 20 -3 10 3 15 -1 15
-13 0 -15 -2 -16 -9 -5 -7 10 -10 11 -16 0 -6 -9 -11 -6 -17 10 -4 12 -13 19
-19 16 -6 -4 -5 2 3 14 7 12 14 17 16 11 5 -15 19 -12 19 5 0 8 -4 12 -9 9 -4
-3 -8 0 -8 7 0 7 -7 4 -16 -7 -8 -10 -13 -13 -9 -6 3 6 2 12 -4 12 -5 0 -11
-5 -13 -10 -5 -16 -48 19 -48 38 1 13 4 12 13 -6 14 -24 27 -20 27 10 0 10 -7
18 -16 18 -8 0 -12 4 -9 10 3 5 0 7 -8 4 -8 -3 -19 -15 -24 -27 l-10 -21 -5
22 c-4 12 -3 20 2 17 4 -3 13 1 19 9 15 17 -11 46 -40 46 -12 0 -17 4 -13 11
5 8 1 8 -14 0 -15 -8 -23 -6 -37 9 -10 11 -22 18 -27 17 -6 -1 -13 5 -15 13
-4 13 -3 13 6 0 7 -10 11 -11 11 -2 0 6 5 12 11 12 5 0 8 -3 6 -7 -2 -5 5 -17
16 -27 18 -17 20 -17 14 -2 -6 14 -3 16 13 11 15 -5 18 -3 14 9 -5 12 -10 13
-27 5 -17 -10 -19 -9 -14 5 4 9 3 15 -1 15 -21 -4 -42 2 -42 12 0 5 4 8 9 5 5
-3 11 0 14 8 4 10 0 12 -14 9 -10 -3 -19 -13 -20 -22 -1 -9 -5 3 -11 27 -5 23
-13 42 -18 42 -5 0 -7 -7 -4 -15 7 -17 -11 -21 -21 -5 -4 6 -11 8 -16 5 -5 -4
-9 -1 -9 5 0 7 6 10 13 7 7 -3 21 1 30 8 15 11 10 13 -39 10 -31 -1 -51 1 -43
5 7 5 14 18 16 30 2 12 -1 19 -6 16 -12 -8 -22 20 -15 42 5 14 4 14 -5 2 -8
-12 -12 -10 -20 10 -5 14 -10 19 -10 12 -1 -7 -5 -10 -11 -7 -5 3 -10 1 -10
-5 0 -6 -5 -8 -11 -4 -8 4 -8 9 0 17 7 7 7 14 0 24 -8 9 -8 13 -1 13 6 0 9 7
6 15 -4 8 -10 15 -16 15 -5 0 -7 -4 -4 -9 9 -14 -3 -39 -22 -46 -14 -5 -15 -4
-4 6 17 18 15 40 -3 33 -8 -4 -15 -2 -15 4 0 6 6 13 13 15 7 3 5 6 -5 6 -10 1
-18 7 -18 15 0 14 -29 29 -57 30 -7 1 -12 6 -11 11 1 6 8 9 14 7 7 -1 16 3 20
9 4 7 3 9 -4 5 -5 -3 -12 0 -15 6 -3 10 -7 10 -18 1 -10 -8 -19 -9 -29 -1 -13
8 -12 9 1 5 13 -4 16 1 15 24 0 18 -7 31 -17 34 -11 4 -16 13 -13 28 2 12 2
16 -2 10 -3 -7 -14 -13 -24 -13 -19 0 -72 39 -53 40 6 0 13 -5 15 -10 4 -13
48 -22 48 -10 0 5 -4 12 -10 15 -5 3 -10 11 -10 16 0 6 4 8 9 4 5 -3 12 -2 15
3 2 4 -6 8 -19 8 -13 0 -22 -4 -19 -8 3 -4 -6 -7 -20 -6 -13 1 -24 5 -24 8 0
3 0 7 -2 10 -1 3 -3 16 -6 30 -3 19 -2 21 6 10 8 -13 10 -12 10 3 0 9 -4 17
-9 17 -6 0 -8 9 -6 20 2 11 -1 22 -6 26 -5 3 -8 0 -7 -8 2 -7 -3 -12 -9 -10
-7 1 -13 -3 -13 -9 0 -6 7 -8 18 -4 14 5 15 4 5 -6 -10 -10 -16 -10 -24 -2 -8
8 -7 20 5 44 9 18 14 35 11 37 -3 3 -5 0 -5 -7 0 -9 -5 -9 -21 0 -12 6 -18 14
-13 18 5 3 -1 16 -13 28 -13 12 -23 17 -23 10 0 -8 -3 -8 -9 2 -5 7 -14 10
-20 7 -6 -4 -11 -1 -11 7 0 10 10 13 33 11 29 -2 30 -2 10 8 -13 6 -23 18 -23
26 0 13 -3 12 -16 -4 -15 -18 -15 -18 -9 4 8 29 -10 52 -41 52 -15 0 -24 6
-24 15 0 8 -4 15 -10 15 -5 0 -10 7 -10 16 0 10 6 14 15 10 8 -3 15 -1 15 4 0
6 -11 10 -25 10 -30 0 -32 14 -5 33 24 17 18 42 -11 44 -17 2 -18 -1 -9 -12 7
-8 16 -12 21 -9 5 3 9 3 9 -1 0 -3 -12 -10 -26 -15 -14 -6 -22 -14 -19 -20 3
-5 1 -10 -5 -10 -7 0 -10 7 -6 15 3 8 1 15 -3 15 -5 0 -11 7 -15 15 -3 8 -1
14 3 12 5 -1 9 3 9 8 0 15 -24 46 -30 39 -3 -3 -9 -1 -13 5 -3 6 1 11 9 11 12
0 14 5 6 25 -10 27 -2 32 20 13 12 -11 12 -10 2 3 -6 9 -8 20 -4 24 4 5 -4 2
-18 -7 -14 -9 -24 -22 -22 -28 4 -18 -16 -2 -30 23 -10 19 -9 20 4 10 8 -7 18
-10 21 -7 11 11 -3 24 -24 24 -11 0 -17 5 -14 10 4 7 12 7 25 0 24 -13 51 -14
31 -1 -8 5 -11 16 -8 25 4 9 2 16 -2 16 -5 0 -12 -8 -15 -17 -5 -13 -9 -14
-19 -4 -9 9 -9 13 0 19 9 6 4 18 -17 44 -17 20 -26 39 -21 42 5 4 12 0 14 -6
4 -10 6 -10 6 0 1 7 -6 15 -15 19 -11 4 -12 8 -4 13 8 5 8 11 -2 21 -7 8 -13
23 -13 33 0 11 -7 21 -15 23 -13 4 -13 3 0 -6 9 -7 11 -11 3 -11 -7 0 -16 6
-20 14 -4 7 -19 19 -31 25 -13 7 -21 15 -19 18 3 2 16 -1 29 -8 20 -11 21 -10
11 3 -7 8 -9 19 -5 23 4 5 0 6 -9 3 -9 -4 -20 -3 -26 0 -14 10 -34 72 -22 72
8 0 13 -14 10 -32 0 -5 7 -8 16 -8 14 0 15 -2 4 -9 -9 -6 -5 -8 13 -8 14 0 26
4 26 10 0 6 -3 8 -6 4 -9 -9 -44 26 -44 45 0 11 -5 15 -14 12 -8 -3 -17 -1
-20 5 -4 6 -14 8 -24 5 -14 -5 -15 -4 -2 5 8 6 11 11 6 11 -6 0 -5 5 2 12 7 7
12 20 12 30 0 10 7 18 17 18 13 0 11 4 -8 20 -20 18 -22 24 -10 41 7 12 10 24
7 27 -3 3 -6 0 -6 -7 0 -7 -5 -9 -11 -6 -6 4 -8 14 -4 22 4 13 3 14 -10 3 -8
-7 -12 -16 -9 -21 3 -5 -1 -9 -8 -9 -7 0 -14 12 -15 26 0 15 -5 29 -10 33 -4
3 -15 15 -23 26 -15 20 -15 20 8 1 22 -19 22 -19 16 -1 -5 12 -4 16 3 12 7 -5
9 0 6 12 -6 23 -34 36 -43 21 -5 -7 -11 -6 -20 5 -11 13 -10 14 6 8 16 -6 17
-4 7 8 -10 13 -10 16 2 16 8 0 12 -3 10 -7 -2 -4 2 -7 10 -7 8 0 15 4 15 9 0
4 -4 8 -10 8 -5 0 -10 7 -10 15 0 8 -5 15 -11 15 -5 0 -7 -4 -4 -10 3 -5 0
-10 -8 -10 -8 0 -17 7 -21 15 -3 8 -1 14 3 12 5 -1 9 3 9 8 0 6 -4 9 -9 7 -16
-4 -10 16 7 22 8 3 13 2 10 -3 -3 -5 1 -11 9 -15 16 -6 16 14 1 26 -14 10 -16
41 -4 55 6 7 7 13 4 13 -12 0 -36 -27 -30 -33 3 -3 -2 -4 -12 -3 -12 2 -19 12
-19 29 -1 14 2 24 7 21 4 -3 6 -10 3 -15 -4 -5 0 -9 8 -9 9 0 13 9 11 26 -3
28 -10 39 -27 39 -5 0 -12 6 -15 14 -3 8 0 11 6 7 6 -3 13 -2 16 3 4 5 -3 12
-14 16 -11 3 -20 13 -20 20 0 9 6 12 15 9 12 -5 14 -2 8 12 -6 17 -5 17 10 5
11 -9 17 -10 17 -2 0 6 -4 11 -10 11 -15 0 -50 42 -44 52 4 5 18 7 33 4 25 -6
25 -5 5 6 -12 8 -19 20 -16 28 3 8 -5 4 -16 -10 -17 -20 -21 -22 -22 -8 0 9 8
23 18 30 9 7 18 23 18 36 1 17 -1 20 -12 11 -7 -6 -10 -18 -7 -26 4 -11 2 -14
-5 -9 -7 4 -12 2 -12 -3 0 -6 -4 -11 -9 -11 -16 0 -7 34 14 53 20 18 20 18 -2
12 -12 -3 -24 -1 -28 5 -3 6 -10 8 -14 6 -3 -3 -7 3 -7 13 0 12 6 17 18 13 10
-2 16 -8 13 -12 -3 -5 -1 -11 5 -15 5 -3 10 -1 10 5 0 7 7 9 16 6 9 -3 12 -2
9 5 -4 5 -24 17 -45 25 -31 13 -37 18 -27 29 10 11 13 10 19 -4 5 -13 7 -12 7
6 1 12 4 30 8 40 7 17 6 17 -11 1 -21 -22 -23 -22 -23 -4 0 8 11 20 24 27 l23
12 -32 20 c-25 15 -28 21 -17 28 12 7 12 9 -1 10 -8 1 -18 1 -23 0 -4 -1 -2 8
5 19 10 17 14 18 16 5 2 -8 8 -15 13 -15 11 0 11 3 -1 34 -7 19 -14 24 -27 19
-15 -5 -15 -3 2 11 17 13 17 15 2 10 -13 -5 -16 -2 -10 12 5 13 3 15 -7 9 -8
-5 -11 -4 -7 3 4 5 17 8 30 5 21 -4 22 -4 3 11 -15 12 -16 16 -5 17 8 0 3 5
-11 11 -15 6 -20 12 -12 15 6 3 12 9 12 14 0 6 -4 7 -10 4 -5 -3 -10 -1 -10 4
0 6 4 11 10 11 5 0 8 16 6 35 -1 19 1 35 6 35 4 0 8 5 8 11 0 5 -4 7 -10 4 -5
-3 -10 1 -10 9 0 9 5 16 12 16 6 0 9 2 6 5 -11 12 -37 -7 -31 -23 4 -9 3 -14
-1 -11 -12 11 -16 58 -5 64 6 5 4 12 -8 20 -10 7 -14 17 -10 22 5 4 14 0 21
-10 20 -26 27 -20 14 11 -15 34 -32 55 -23 27 5 -15 4 -16 -3 -6 -5 7 -7 22
-5 32 5 18 7 18 17 3 11 -15 14 -15 29 1 9 9 17 22 17 28 0 8 -3 8 -9 -1 -6
-10 -10 -10 -21 3 -7 8 -9 15 -4 15 4 0 -1 7 -12 16 -16 13 -16 15 -2 10 19
-6 21 13 3 26 -12 9 -16 50 -3 42 4 -3 6 -9 3 -14 -3 -5 0 -12 7 -16 7 -4 10
-4 6 1 -4 4 -4 13 1 19 14 18 22 48 11 41 -6 -3 -10 -13 -10 -21 0 -13 -3 -12
-17 2 -18 18 -25 84 -10 84 5 0 6 4 3 9 -3 5 5 17 19 27 23 17 19 34 -10 34
-5 0 -4 -4 4 -9 9 -6 10 -11 3 -15 -6 -4 -16 2 -21 13 -9 15 -7 20 8 24 11 2
24 0 29 -5 6 -6 12 -6 17 1 3 7 1 10 -6 9 -7 -2 -13 4 -14 12 0 9 -9 15 -22
14 -15 -1 -20 3 -16 13 4 11 8 11 13 3 5 -8 9 -8 13 3 7 19 -5 35 -25 31 -10
-1 -18 2 -18 8 0 6 6 8 14 5 16 -6 40 16 29 26 -3 4 1 7 10 7 10 0 17 4 17 10
0 5 -6 7 -14 4 -7 -3 -16 2 -20 11 -3 9 -2 13 4 10 6 -3 10 1 10 10 0 9 -5 13
-11 9 -6 -3 -4 5 6 19 10 17 13 27 6 32 -6 3 -11 0 -12 -7 0 -10 -2 -10 -6 0
-2 6 -9 10 -14 6 -5 -3 -9 0 -9 6 0 7 6 10 14 7 8 -3 20 1 28 10 11 14 10 16
-9 11 -13 -4 -23 -4 -23 -1 0 3 10 13 23 24 12 10 17 18 10 19 -6 0 -14 -6
-17 -12 -3 -7 -3 -3 0 10 4 15 -1 31 -13 45 -16 19 -16 20 0 8 22 -18 30 -10
33 35 3 28 0 35 -11 30 -8 -3 -15 -1 -15 4 0 6 5 10 10 10 6 0 10 6 10 14 0
15 27 15 53 0 9 -5 9 -4 1 5 -6 6 -21 13 -34 16 -31 6 -38 15 -12 15 11 0 23
4 26 9 4 5 -4 7 -16 5 -13 -2 -18 -2 -12 1 6 3 9 28 7 60 -1 30 1 56 6 59 5 4
7 -3 4 -15 -5 -19 -4 -20 16 -10 11 7 21 16 21 22 0 6 -4 7 -10 4 -5 -3 -10
-1 -10 4 0 6 6 11 13 11 6 1 0 8 -15 16 -35 18 -36 27 -3 14 20 -8 23 -7 18 7
-5 12 -2 15 9 11 9 -4 15 0 15 8 0 9 -6 13 -15 9 -12 -4 -13 -3 -2 10 7 8 8
15 2 15 -5 0 -16 -10 -24 -22 -11 -17 -16 -19 -23 -8 -5 8 -4 11 2 7 6 -4 14
0 17 9 9 23 7 36 -4 29 -6 -3 -7 1 -3 10 3 9 9 13 12 8 12 -18 39 -22 45 -7 4
11 1 14 -12 10 -13 -5 -19 -1 -19 10 0 9 9 19 19 22 18 4 18 5 1 22 -16 15
-19 15 -31 1 -11 -14 -12 -13 -2 6 5 12 15 25 22 29 7 4 8 3 4 -4 -4 -7 -2
-12 3 -12 6 0 11 7 11 15 0 8 5 15 11 15 5 0 7 -5 3 -12 -4 -6 -3 -8 4 -5 11
7 10 20 -3 50 -4 10 -5 21 -1 24 3 3 0 13 -7 21 -9 13 -9 14 1 8 8 -5 15 1 21
16 5 13 16 30 25 37 10 8 14 21 11 32 -4 11 -2 19 5 19 6 0 10 6 8 13 -1 6 4
23 11 36 12 21 11 26 -1 35 -15 11 -16 26 -3 59 5 12 2 17 -11 18 -17 0 -17 1
1 8 11 5 23 7 28 4 4 -2 7 3 7 12 0 9 -4 13 -10 10 -5 -3 -7 0 -4 8 3 9 13 13
26 9 18 -4 19 -3 6 18 -10 18 -11 23 0 27 10 4 10 8 1 19 -10 12 -8 16 9 20
21 6 39 34 22 34 -6 0 -10 7 -10 15 0 8 5 15 10 15 6 0 10 5 10 11 0 5 -4 7
-10 4 -5 -3 -10 -1 -10 4 0 6 5 11 10 11 6 0 10 7 10 16 0 9 5 12 13 8 9 -6 9
-4 -1 8 -9 11 -10 23 -3 41 5 14 7 28 3 33 -4 4 -2 4 5 0 18 -10 35 28 20 44
-10 12 -9 12 6 1 12 -10 17 -10 17 -2 0 7 5 9 10 6 8 -5 7 -11 -1 -21 -9 -11
-8 -14 2 -14 9 0 15 12 15 31 1 20 -2 29 -10 26 -7 -3 -13 1 -13 8 0 10 7 11
23 5 16 -7 24 -5 28 6 3 8 2 13 -3 10 -5 -3 -11 3 -14 14 -3 11 -1 20 5 20 6
0 8 6 5 13 -6 17 19 52 28 38 3 -6 1 -11 -4 -11 -6 0 -10 -15 -10 -32 1 -27 3
-28 6 -9 3 14 12 35 20 48 15 23 15 24 -5 29 -11 3 -23 16 -26 27 -4 19 -3 20
7 6 7 -9 18 -14 26 -11 8 3 11 0 7 -7 -4 -6 -2 -11 3 -11 13 0 13 3 5 24 -3 9
-10 14 -14 11 -5 -3 -12 0 -16 6 -5 8 1 10 19 7 22 -4 27 -1 32 23 4 16 4 38
0 49 -4 11 -2 20 4 20 6 0 11 -4 11 -10 0 -5 6 -10 13 -10 6 1 1 9 -11 20 -28
23 -25 43 6 45 11 1 19 -2 17 -6 -3 -4 2 -9 10 -13 8 -3 15 -1 15 5 0 6 4 8 9
5 4 -3 6 6 3 21 -3 17 -1 24 6 19 6 -3 14 -2 17 4 4 6 3 9 -2 8 -4 -2 -8 2 -8
7 0 6 3 9 7 8 5 -2 7 2 5 9 -1 7 4 12 11 13 6 0 12 3 12 7 1 4 7 25 15 47 7
22 11 42 8 45 -10 10 -25 7 -18 -3 9 -15 -15 -25 -28 -12 -9 9 -7 10 7 5 13
-5 17 -4 12 4 -4 7 -2 20 3 29 6 10 11 12 11 6 0 -7 5 -13 11 -13 6 0 9 9 6
19 -3 13 0 18 8 15 7 -3 16 -1 19 5 4 6 13 8 20 5 8 -3 17 -1 21 5 4 7 0 8
-11 4 -12 -4 -15 -3 -10 5 4 7 2 10 -7 6 -8 -3 -20 3 -28 13 -13 16 -12 17 3
5 10 -8 18 -9 22 -3 5 7 15 7 31 1 31 -12 33 -3 3 10 -18 7 -19 9 -5 9 9 1 17
5 17 10 0 5 -9 7 -20 4 -11 -3 -20 -9 -20 -14 0 -5 -4 -9 -10 -9 -16 0 -1 25
23 36 12 5 21 15 20 22 -2 6 4 9 13 5 12 -4 12 -8 4 -13 -7 -4 -9 -13 -6 -19
11 -17 29 -13 22 4 -3 8 0 15 7 15 6 0 1 7 -11 16 -21 15 -33 52 -12 39 6 -4
8 -10 5 -15 -3 -4 1 -10 8 -13 8 -3 19 4 25 14 7 10 8 19 3 19 -5 0 -11 -6
-14 -12 -4 -11 -3 9 5 89 1 7 5 10 10 7 4 -3 8 0 8 6 0 6 4 9 10 5 5 -3 7 -12
4 -20 -4 -8 -11 -12 -16 -9 -6 4 -8 1 -6 -7 3 -8 1 -22 -3 -31 -7 -13 -5 -16
10 -15 11 0 18 4 16 8 -2 3 1 23 7 45 6 21 11 46 9 54 -1 12 0 13 7 1 10 -14
36 -6 27 9 -3 5 -1 11 4 15 6 3 9 11 7 18 -1 7 -1 9 1 5 3 -4 11 -1 20 7 11
12 19 13 28 5 10 -8 15 -8 20 0 4 6 -1 17 -11 24 -18 13 -29 60 -11 49 5 -3
13 0 17 7 5 9 9 9 14 1 4 -6 2 -11 -3 -11 -6 0 -11 -5 -11 -12 0 -9 3 -9 12 0
8 8 17 8 31 1 14 -8 18 -8 12 0 -4 7 -1 20 6 29 12 14 10 14 -8 -1 -14 -12
-23 -15 -28 -8 -10 17 4 31 31 31 17 0 24 5 24 20 0 11 6 20 13 20 8 0 7 3 -3
10 -12 8 -12 10 3 16 9 3 14 10 11 15 -3 5 2 6 10 3 21 -8 20 14 -1 40 -10 12
-11 15 -3 9 20 -18 23 -17 44 22 18 34 46 48 46 23 0 -6 3 -8 6 -5 4 4 1 13
-5 21 -11 13 -9 15 8 11 12 -2 27 -7 34 -10 6 -4 5 -1 -4 7 -19 16 -46 63 -30
54 6 -4 11 -1 12 6 0 7 4 3 9 -9 5 -13 16 -23 24 -23 20 0 27 26 10 40 -8 7
-14 20 -13 29 0 13 1 14 6 1 3 -8 14 -23 24 -33 17 -16 19 -16 19 -2 0 10 5
13 13 9 9 -6 9 -4 1 7 -14 17 -14 49 -1 49 6 0 7 3 4 7 -4 3 -2 12 4 20 9 10
8 13 -2 13 -9 1 -8 4 4 11 10 6 21 8 24 5 4 -3 12 -1 19 5 7 6 27 8 43 6 17
-3 29 -2 27 2 -3 4 4 15 15 24 10 9 19 21 19 26 0 6 -12 -1 -26 -14 -26 -25
-51 -34 -39 -16 3 5 1 12 -5 16 -13 8 -13 25 0 25 6 0 9 -3 8 -7 -3 -8 5 -13
23 -13 5 0 7 5 4 10 -10 16 23 24 40 10 20 -16 26 -10 18 18 -4 16 -9 20 -18
12 -8 -7 -12 -5 -12 5 0 8 4 15 9 15 5 0 6 6 2 13 -5 7 0 6 11 -3 15 -12 17
-12 10 -1 -6 11 -4 13 11 7 10 -4 15 -4 11 0 -4 4 -2 13 5 21 9 11 14 11 31
-4 11 -10 17 -13 14 -6 -4 6 0 19 9 27 8 9 12 16 8 16 -4 0 5 11 20 25 15 14
30 25 34 25 4 0 -2 -7 -12 -15 -11 -8 -15 -15 -9 -15 17 0 34 26 27 44 -4 11
-1 16 11 16 10 0 14 5 9 13 -4 6 2 4 13 -5 24 -22 47 -23 39 -3 -3 9 1 18 9
21 8 4 15 11 15 17 0 5 -8 2 -19 -7 -17 -15 -19 -15 -25 -1 -3 9 -2 13 3 10 5
-3 12 -1 16 5 3 5 16 10 28 10 18 0 19 2 7 10 -11 7 -11 10 -2 10 7 0 11 4 8
8 -3 4 9 7 25 6 25 -2 28 0 18 12 -6 8 -8 14 -3 13 5 0 29 -32 54 -71 25 -38
84 -108 133 -154 180 -172 411 -237 594 -169 140 53 351 174 693 395 107 70
224 145 260 167 286 174 561 294 790 343 111 24 356 26 512 4z m-3137 -614
c10 -11 13 -20 7 -20 -6 0 -16 9 -22 20 -6 11 -9 20 -7 20 2 0 12 -9 22 -20z
m-79 -42 c4 -7 4 -10 -1 -6 -10 10 -37 -11 -29 -23 3 -5 -2 -9 -11 -9 -14 0
-14 3 2 25 20 28 29 30 39 13z m-46 -63 c0 -12 -19 -12 -23 0 -4 9 -1 12 9 8
7 -3 14 -7 14 -8z m-40 1 c0 -3 -4 -8 -10 -11 -5 -3 -10 -1 -10 4 0 6 5 11 10
11 6 0 10 -2 10 -4z m-245 -246 c3 -5 1 -10 -4 -10 -6 0 -11 5 -11 10 0 6 2
10 4 10 3 0 8 -4 11 -10z m9 -35 c3 -8 1 -15 -3 -15 -5 0 -11 7 -15 15 -3 8
-1 15 3 15 5 0 11 -7 15 -15z m-209 -205 c3 -5 1 -10 -4 -10 -6 0 -11 5 -11
10 0 6 2 10 4 10 3 0 8 -4 11 -10z m-31 -24 c-3 -8 -1 -17 5 -21 18 -11 12
-35 -9 -35 -11 0 -20 5 -20 10 0 6 5 10 11 10 6 0 8 7 5 16 -3 9 -4 20 0 25 8
14 14 11 8 -5z m7447 -588 c-10 -11 -11 -9 -6 7 7 20 6 20 -9 1 -9 -11 -16
-15 -16 -10 0 18 23 35 34 24 7 -7 6 -14 -3 -22z m-7841 -17 c0 -6 -4 -12 -8
-15 -5 -3 -9 1 -9 9 0 8 4 15 9 15 4 0 8 -4 8 -9z m27 -16 c0 -8 -4 -12 -9 -9
-12 8 -10 -10 3 -23 7 -7 4 -9 -14 -6 -15 3 -24 0 -25 -9 -1 -18 -13 -82 -16
-85 -1 -1 -7 11 -13 27 -6 17 -8 28 -3 25 5 -3 12 0 16 6 3 6 1 15 -6 19 -8 5
-7 9 5 14 9 3 13 11 9 17 -4 7 -3 9 3 6 6 -4 18 2 28 13 22 24 22 24 22 5z
m-129 -230 c-3 -3 -9 2 -12 12 -6 14 -5 15 5 6 7 -7 10 -15 7 -18z m8076 -1
c3 -8 2 -12 -4 -9 -6 3 -10 10 -10 16 0 14 7 11 14 -7z m116 -238 c10 -14 11
-17 2 -12 -7 4 -19 3 -27 -4 -12 -10 -12 -8 -2 14 6 13 12 24 12 23 0 -1 7
-11 15 -21z m78 -217 c-10 -7 -10 -9 0 -9 6 0 12 -8 12 -17 -1 -17 -1 -17 -11
0 -5 9 -18 17 -27 18 -11 0 -12 3 -4 6 6 2 10 8 7 13 -3 4 4 6 16 3 16 -4 17
-8 7 -14z m56 -127 c3 -5 -1 -9 -9 -9 -8 0 -12 4 -9 9 3 4 7 8 9 8 2 0 6 -4 9
-8z m17 -87 c-4 -16 -6 -17 -9 -3 -2 9 -11 19 -20 21 -9 3 -5 4 9 4 21 -1 25
-5 20 -22z m-8625 -26 c1 -5 2 -14 3 -20 0 -5 6 -7 11 -4 6 3 10 1 10 -5 0 -6
-7 -10 -16 -8 -10 2 -19 -3 -22 -11 -3 -10 0 -12 11 -8 14 5 15 3 5 -13 -7
-10 -16 -16 -20 -14 -5 3 -5 10 -2 16 5 8 1 9 -10 5 -14 -6 -15 -3 -6 13 6 11
14 20 19 20 5 0 6 12 3 28 -3 15 -1 23 4 19 5 -5 10 -13 10 -18z m-13 -142
c-8 -13 -23 3 -23 26 0 20 0 20 14 2 8 -11 12 -23 9 -28z m8727 -167 c0 -5 -2
-10 -4 -10 -3 0 -8 5 -11 10 -3 6 -1 10 4 10 6 0 11 -4 11 -10z m60 -214 c0
-3 -4 -8 -10 -11 -5 -3 -10 -1 -10 4 0 6 5 11 10 11 6 0 10 -2 10 -4z m7 -241
c0 -8 -4 -12 -9 -9 -5 3 -6 10 -3 15 9 13 12 11 12 -6z m-8942 -275 c3 -5 1
-10 -4 -10 -6 0 -11 5 -11 10 0 6 2 10 4 10 3 0 8 -4 11 -10z m8969 -216 c9
-24 2 -26 -12 -4 -7 11 -8 20 -3 20 5 0 12 -7 15 -16z m-9000 -90 c3 -8 2 -12
-4 -9 -6 3 -10 10 -10 16 0 14 7 11 14 -7z m43 -126 c-3 -8 -6 -5 -6 6 -1 11
2 17 5 13 3 -3 4 -12 1 -19z m8917 -194 c16 -6 12 -24 -5 -24 -6 0 -8 4 -5 9
4 5 0 12 -6 14 -7 3 -10 6 -6 6 3 1 13 -2 22 -5z m1 -63 c-3 -5 -1 -12 4 -16
14 -8 3 -32 -14 -32 -8 0 -15 4 -15 9 0 4 7 8 16 8 13 0 14 3 4 15 -7 8 -17
12 -23 8 -6 -3 -7 -1 -3 5 4 7 14 12 22 12 8 0 13 -4 9 -9z m-1 -117 c3 -8 2
-12 -4 -9 -6 3 -10 1 -10 -6 0 -7 -3 -10 -6 -6 -7 6 2 37 10 37 2 0 7 -7 10
-16z m-8860 -136 c-3 -5 -10 -8 -16 -8 -6 0 -9 3 -5 6 3 4 -4 15 -16 25 -22
19 -22 19 10 2 17 -10 29 -21 27 -25z m8811 -18 c3 -5 1 -10 -4 -10 -6 0 -11
5 -11 10 0 6 2 10 4 10 3 0 8 -4 11 -10z m-35 -130 c0 -5 -2 -10 -4 -10 -3 0
-8 5 -11 10 -3 6 -1 10 4 10 6 0 11 -4 11 -10z m-8730 -146 c0 -2 -7 -4 -15
-4 -8 0 -15 4 -15 10 0 5 7 7 15 4 8 -4 15 -8 15 -10z m10 -24 c0 -5 -8 -10
-17 -10 -15 0 -16 2 -3 10 19 12 20 12 20 0z m8674 -72 c-5 -8 -2 -9 10 -5 10
4 15 3 11 -3 -7 -12 -35 -13 -35 -2 0 9 10 22 17 22 2 0 1 -5 -3 -12z m23 -80
c-3 -8 -6 -5 -6 6 -1 11 2 17 5 13 3 -3 4 -12 1 -19z m-120 -300 c-3 -8 -6 -5
-6 6 -1 11 2 17 5 13 3 -3 4 -12 1 -19z m-8407 -22 c0 -3 -7 -12 -16 -21 -15
-15 -15 -17 5 -22 11 -3 21 -10 21 -15 0 -5 -4 -7 -9 -4 -5 4 -12 0 -14 -6 -3
-8 -6 -5 -6 6 -1 12 -6 16 -15 13 -11 -4 -13 -1 -9 11 8 20 43 51 43 38z m124
-337 c-3 -6 0 -15 7 -20 12 -7 11 -11 -2 -25 -16 -15 -17 -14 -17 20 0 20 4
36 10 36 5 0 6 -5 2 -11z m-27 -19 c-1 -21 -10 -18 -13 5 -1 8 2 15 6 15 5 0
8 -9 7 -20z m74 -133 c-6 -8 -7 -18 -3 -22 4 -5 2 -5 -5 -1 -14 8 -6 36 9 36
7 0 6 -5 -1 -13z m293 -465 c2 -4 0 -14 -6 -22 -8 -12 -9 -12 -5 2 3 9 1 19
-6 22 -9 3 -9 5 0 5 6 1 14 -3 17 -7z m7421 -41 c3 -5 2 -12 -3 -15 -5 -3 -9
1 -9 9 0 17 3 19 12 6z m-7405 -5 c0 -3 -4 -8 -10 -11 -5 -3 -10 -1 -10 4 0 6
5 11 10 11 6 0 10 -2 10 -4z m166 -254 c-18 -16 -18 -16 -6 6 6 13 14 21 18
18 3 -4 -2 -14 -12 -24z m7024 -32 c-6 -11 -13 -20 -16 -20 -2 0 0 9 6 20 6
11 13 20 16 20 2 0 0 -9 -6 -20z m-6800 -199 c0 -18 -18 -21 -30 -6 -10 13 -9
15 9 15 11 0 21 -4 21 -9z m6580 -83 c0 -6 -7 -5 -15 2 -8 7 -15 17 -15 22 0
6 7 5 15 -2 8 -7 15 -17 15 -22z m-145 -108 c3 -5 -1 -10 -10 -10 -9 0 -13 5
-10 10 3 6 8 10 10 10 2 0 7 -4 10 -10z m-18 -55 c0 -8 -4 -12 -9 -9 -5 3 -6
10 -3 15 9 13 12 11 12 -6z m-6134 -14 c4 0 7 -5 7 -11 0 -13 -48 -8 -54 6 -4
10 11 11 47 5z m6064 -16 c0 -8 -7 -15 -15 -15 -12 0 -12 3 -2 15 7 8 13 15
15 15 1 0 2 -7 2 -15z m-177 -159 c0 -3 -4 -8 -10 -11 -5 -3 -10 -1 -10 4 0 6
5 11 10 11 6 0 10 -2 10 -4z m-288 -223 c-6 -2 -10 -9 -7 -13 3 -5 0 -12 -6
-16 -8 -4 -9 -3 -5 4 4 7 1 12 -6 12 -9 0 -9 3 2 10 8 5 20 9 25 9 6 0 4 -3
-3 -6z m-5095 -38 c0 -8 -4 -12 -9 -9 -4 3 -8 9 -8 15 0 5 4 9 8 9 5 0 9 -7 9
-15z m98 -55 c3 -5 -1 -10 -10 -10 -9 0 -13 5 -10 10 3 6 8 10 10 10 2 0 7 -4
10 -10z m65 -51 c0 -6 -4 -7 -10 -4 -5 3 -10 11 -10 16 0 6 5 7 10 4 6 -3 10
-11 10 -16z m4720 0 c0 -6 -4 -7 -10 -4 -5 3 -10 11 -10 16 0 6 5 7 10 4 6 -3
10 -11 10 -16z m-30 -39 c-8 -5 -17 -7 -19 -4 -3 3 1 9 9 14 8 5 17 7 19 4 3
-3 -1 -9 -9 -14z m-4540 -40 c3 -2 8 -2 12 -1 4 0 5 -6 1 -15 -4 -11 -8 -12
-13 -4 -4 6 -17 12 -28 13 -12 1 -22 5 -22 9 0 7 31 5 50 -2z m4467 -6 c-3 -3
-12 -4 -19 -1 -8 3 -5 6 6 6 11 1 17 -2 13 -5z m-4399 -54 c7 -11 11 -20 9
-20 -2 0 -12 9 -22 20 -10 11 -14 20 -9 20 5 0 15 -9 22 -20z m4172 -20 c0 -5
-5 -10 -11 -10 -5 0 -7 5 -4 10 3 6 8 10 11 10 2 0 4 -4 4 -10z m-25 -20 c3
-5 1 -10 -4 -10 -6 0 -11 5 -11 10 0 6 2 10 4 10 3 0 8 -4 11 -10z m-10 -20
c11 -5 14 -9 7 -9 -7 -1 -10 -5 -7 -11 3 -5 0 -7 -9 -4 -15 6 -31 35 -18 33 4
0 16 -4 27 -9z m-45 -39 c0 -4 -7 -8 -15 -8 -16 0 -20 9 -9 20 8 8 24 -1 24
-12z m-3843 -25 c0 -8 -6 -12 -15 -9 -11 5 -11 7 0 14 7 5 13 9 14 9 0 0 1 -6
1 -14z m3702 -10 c10 -12 8 -13 -8 -9 -12 3 -18 9 -15 14 7 12 10 11 23 -5z
m-32 -38 c-3 -8 -6 -5 -6 6 -1 11 2 17 5 13 3 -3 4 -12 1 -19z m-3517 -8 c0
-5 -5 -10 -11 -10 -5 0 -7 5 -4 10 3 6 8 10 11 10 2 0 4 -4 4 -10z m98 -50
c12 -19 11 -20 -8 -8 -20 13 -27 28 -12 28 4 0 13 -9 20 -20z m2907 -120 c3
-5 1 -10 -4 -10 -6 0 -11 5 -11 10 0 6 2 10 4 10 3 0 8 -4 11 -10z m-708 -133
c-5 -15 -39 -16 -44 -2 -2 6 8 12 23 13 17 1 24 -2 21 -11z m71 -21 c-7 -8
-15 -12 -17 -11 -5 6 10 25 20 25 5 0 4 -6 -3 -14z m-98 -10 c0 -3 -4 -8 -10
-11 -5 -3 -10 -1 -10 4 0 6 5 11 10 11 6 0 10 -2 10 -4z"/>
<path d="M7041 13924 c0 -11 3 -14 6 -6 3 7 2 16 -1 19 -3 4 -6 -2 -5 -13z"/>
<path d="M6879 13778 c-8 -27 -7 -48 2 -43 6 4 8 13 5 20 -3 8 0 16 7 19 9 3
9 5 0 5 -7 1 -13 0 -14 -1z"/>
<path d="M6835 13740 c-3 -5 -4 -10 0 -10 3 0 1 -9 -5 -20 -7 -14 -7 -20 0
-20 5 0 10 5 10 11 0 5 4 8 8 5 4 -2 8 4 9 14 2 22 -13 35 -22 20z"/>
<path d="M6691 13557 c-1 -11 -6 -15 -13 -11 -7 5 -8 3 -3 -5 10 -16 29 2 22
21 -4 8 -6 7 -6 -5z"/>
<path d="M6658 13483 c6 -2 18 -2 25 0 6 3 1 5 -13 5 -14 0 -19 -2 -12 -5z"/>
<path d="M6465 13251 c-3 -5 -1 -12 5 -16 5 -3 10 1 10 9 0 18 -6 21 -15 7z"/>
<path d="M6416 13179 c2 -4 -2 -10 -8 -12 -8 -4 -9 -6 -2 -6 6 -1 17 5 23 12
8 10 7 14 -4 14 -8 0 -12 -4 -9 -8z"/>
<path d="M13996 12820 c4 -14 8 -27 11 -30 6 -6 23 22 23 39 0 10 -3 11 -14 2
-11 -9 -15 -9 -20 1 -3 7 -3 2 0 -12z"/>
<path d="M14015 12770 c3 -5 8 -10 11 -10 2 0 4 5 4 10 0 6 -5 10 -11 10 -5 0
-7 -4 -4 -10z"/>
<path d="M6080 12690 c0 -12 28 -25 36 -17 3 3 -4 10 -15 17 -15 7 -21 7 -21
0z"/>
<path d="M14068 12631 c8 -4 13 -11 13 -15 -1 -3 -1 -14 0 -23 0 -15 2 -15 8
2 11 26 3 45 -18 45 -12 0 -13 -2 -3 -9z"/>
<path d="M5937 12296 c-12 -9 -14 -16 -8 -21 6 -3 11 0 11 7 0 10 3 9 11 -2 9
-13 10 -13 5 2 -3 10 1 18 12 21 13 4 13 5 2 6 -8 0 -23 -6 -33 -13z"/>
<path d="M14226 12282 c-3 -5 1 -9 9 -9 8 0 12 4 9 9 -3 4 -7 8 -9 8 -2 0 -6
-4 -9 -8z"/>
<path d="M5907 12264 c-4 -5 21 -64 27 -64 1 0 2 10 2 23 0 23 -19 50 -29 41z"/>
<path d="M14285 12110 c-4 -6 3 -10 14 -10 25 0 27 6 6 13 -8 4 -17 2 -20 -3z"/>
<path d="M5870 12085 c0 -8 4 -15 8 -15 5 0 9 7 9 15 0 8 -4 15 -9 15 -4 0 -8
-7 -8 -15z"/>
<path d="M5814 11962 c0 -10 8 -18 18 -18 16 0 16 2 1 18 -9 10 -17 18 -17 18
-1 0 -2 -8 -2 -18z"/>
<path d="M14370 11835 c0 -5 5 -17 10 -25 5 -8 10 -10 10 -5 0 6 -5 17 -10 25
-5 8 -10 11 -10 5z"/>
<path d="M14416 11762 c-3 -5 1 -9 9 -9 8 0 12 4 9 9 -3 4 -7 8 -9 8 -2 0 -6
-4 -9 -8z"/>
<path d="M5766 11742 c-3 -5 1 -9 9 -9 8 0 15 4 15 9 0 4 -4 8 -9 8 -6 0 -12
-4 -15 -8z"/>
<path d="M5750 11705 c-8 -9 -9 -15 -2 -15 6 0 14 5 17 10 4 6 11 7 17 4 7 -4
8 -2 4 4 -10 16 -21 15 -36 -3z"/>
<path d="M14455 11520 c-3 -6 1 -7 9 -4 18 7 21 14 7 14 -6 0 -13 -4 -16 -10z"/>
<path d="M5673 11333 c-7 -2 -13 -9 -13 -14 0 -6 5 -7 10 -4 6 3 10 1 10 -4 0
-19 -5 -26 -15 -23 -5 2 -6 0 -2 -4 17 -18 35 -12 30 9 -2 12 -5 28 -5 35 -1
6 -2 12 -2 11 -1 0 -7 -3 -13 -6z"/>
<path d="M14485 11250 c-3 -5 1 -10 10 -10 9 0 13 5 10 10 -3 6 -8 10 -10 10
-2 0 -7 -4 -10 -10z"/>
<path d="M5650 11190 c0 -5 7 -10 16 -10 8 0 12 5 9 10 -3 6 -10 10 -16 10 -5
0 -9 -4 -9 -10z"/>
<path d="M5655 11160 c-3 -5 -1 -10 4 -10 6 0 11 5 11 10 0 6 -2 10 -4 10 -3
0 -8 -4 -11 -10z"/>
<path d="M5666 11128 c3 -5 10 -6 15 -3 13 9 11 12 -6 12 -8 0 -12 -4 -9 -9z"/>
<path d="M5640 11079 c0 -5 9 -9 20 -9 11 0 20 2 20 4 0 2 -9 6 -20 9 -11 3
-20 1 -20 -4z"/>
<path d="M14543 11039 c-6 -6 -9 -18 -6 -25 9 -23 21 -16 19 11 0 14 -1 25 -1
25 -1 0 -6 -5 -12 -11z"/>
<path d="M5655 11030 c3 -5 12 -7 20 -3 21 7 19 13 -6 13 -11 0 -18 -4 -14
-10z"/>
<path d="M5646 10828 c3 -5 10 -6 15 -3 13 9 11 12 -6 12 -8 0 -12 -4 -9 -9z"/>
<path d="M14540 10721 c0 -12 5 -21 10 -21 6 0 10 6 10 14 0 8 -4 18 -10 21
-5 3 -10 -3 -10 -14z"/>
<path d="M5621 10658 c1 -31 14 -45 34 -38 19 7 19 7 -2 14 -14 4 -20 12 -16
22 3 7 0 14 -6 14 -6 0 -11 -6 -10 -12z"/>
<path d="M14555 10570 c6 -10 4 -12 -8 -7 -9 3 -19 2 -22 -3 -4 -6 3 -10 14
-10 24 0 36 16 20 26 -8 5 -9 3 -4 -6z"/>
<path d="M14536 10464 c-9 -22 -8 -26 6 -22 13 5 20 38 8 38 -4 0 -11 -7 -14
-16z"/>
<path d="M5642 10339 c-13 -5 -21 -13 -18 -18 9 -14 43 -2 43 15 0 8 -1 14 -1
13 -1 0 -11 -4 -24 -10z"/>
<path d="M14491 10054 c0 -11 3 -14 6 -6 3 7 2 16 -1 19 -3 4 -6 -2 -5 -13z"/>
<path d="M5716 9867 c3 -10 9 -15 12 -12 3 3 0 11 -7 18 -10 9 -11 8 -5 -6z"/>
<path d="M14463 9846 c-3 -5 -1 -6 5 -2 16 10 15 -7 0 -23 -11 -10 -9 -11 5
-5 10 3 22 14 26 23 7 13 5 17 -11 17 -10 0 -22 -5 -25 -10z"/>
<path d="M5790 9540 c0 -5 5 -10 11 -10 5 0 7 5 4 10 -3 6 -8 10 -11 10 -2 0
-4 -4 -4 -10z"/>
<path d="M5805 9510 c-3 -5 -1 -10 4 -10 6 0 11 5 11 10 0 6 -2 10 -4 10 -3 0
-8 -4 -11 -10z"/>
<path d="M14369 9493 c-13 -16 -12 -17 4 -4 9 7 17 15 17 17 0 8 -8 3 -21 -13z"/>
<path d="M14306 9301 c-4 -5 -2 -12 3 -15 5 -4 12 -2 15 3 4 5 2 12 -3 15 -5
4 -12 2 -15 -3z"/>
<path d="M5880 9189 c0 -11 4 -18 10 -14 5 3 7 12 3 20 -7 21 -13 19 -13 -6z"/>
<path d="M14235 9100 c-3 -5 -1 -10 4 -10 6 0 11 5 11 10 0 6 -2 10 -4 10 -3
0 -8 -4 -11 -10z"/>
<path d="M14243 9064 c-15 -16 -16 -24 -4 -24 8 0 24 30 19 35 -2 2 -9 -3 -15
-11z"/>
<path d="M5934 9024 c-15 -12 -16 -15 -2 -10 9 3 19 0 21 -7 3 -7 4 -2 4 11
-1 12 -2 22 -2 22 -1 0 -10 -7 -21 -16z"/>
<path d="M6102 8696 c7 -8 15 -12 17 -11 5 6 -10 25 -20 25 -5 0 -4 -6 3 -14z"/>
<path d="M6191 8501 c-12 -8 -9 -11 12 -17 16 -3 31 -4 34 0 4 3 -5 6 -18 6
-19 0 -21 2 -9 10 8 5 11 10 5 10 -5 0 -17 -4 -24 -9z"/>
<path d="M6195 8440 c3 -5 8 -10 11 -10 2 0 4 5 4 10 0 6 -5 10 -11 10 -5 0
-7 -4 -4 -10z"/>
<path d="M13926 8428 c3 -5 10 -6 15 -3 13 9 11 12 -6 12 -8 0 -12 -4 -9 -9z"/>
<path d="M6240 8410 c-9 -6 -10 -10 -3 -10 6 0 15 5 18 10 8 12 4 12 -15 0z"/>
<path d="M6279 8368 c-6 -21 -5 -38 2 -38 5 0 9 9 9 20 0 16 -7 28 -11 18z"/>
<path d="M13718 8103 c7 -3 16 -2 19 1 4 3 -2 6 -13 5 -11 0 -14 -3 -6 -6z"/>
<path d="M6477 8019 c7 -7 15 -10 18 -7 3 3 -2 9 -12 12 -14 6 -15 5 -6 -5z"/>
<path d="M13593 7919 c-2 -23 3 -25 10 -4 4 8 3 16 -1 19 -4 3 -9 -4 -9 -15z"/>
<path d="M6610 7900 c0 -5 5 -10 10 -10 6 0 10 5 10 10 0 6 -4 10 -10 10 -5 0
-10 -4 -10 -10z"/>
<path d="M13505 7830 c-3 -5 -1 -10 4 -10 6 0 11 5 11 10 0 6 -2 10 -4 10 -3
0 -8 -4 -11 -10z"/>
<path d="M13441 7754 c10 -13 10 -17 -2 -25 -11 -7 -11 -9 4 -9 9 0 17 5 17
10 0 6 6 10 14 10 7 0 19 7 26 15 15 18 7 19 -21 3 -17 -10 -23 -10 -26 0 -3
6 -9 12 -15 12 -6 0 -5 -7 3 -16z"/>
<path d="M6847 7617 c-3 -8 -2 -20 3 -26 5 -9 8 -4 8 13 0 29 -3 32 -11 13z"/>
<path d="M7150 7331 c0 -6 5 -13 10 -16 6 -3 10 1 10 9 0 9 -4 16 -10 16 -5 0
-10 -4 -10 -9z"/>
<path d="M12897 7213 c-3 -5 -2 -15 2 -22 5 -7 11 -9 14 -4 3 5 2 15 -2 22 -5
7 -11 9 -14 4z"/>
<path d="M12776 7135 c-9 -26 -7 -32 5 -12 6 10 9 21 6 23 -2 3 -7 -2 -11 -11z"/>
<path d="M12712 7069 c-11 -12 -20 -15 -27 -9 -8 7 -12 5 -12 -5 0 -17 23 -20
32 -5 4 6 10 8 14 5 5 -2 16 4 25 14 15 16 15 18 0 18 -10 0 -24 -8 -32 -18z"/>
<path d="M7456 7068 c3 -5 10 -6 15 -3 13 9 11 12 -6 12 -8 0 -12 -4 -9 -9z"/>
<path d="M12530 6941 c0 -5 -11 -8 -25 -5 -19 3 -23 1 -18 -12 4 -10 9 -12 16
-5 5 5 15 7 22 5 16 -7 29 12 15 21 -5 3 -10 2 -10 -4z"/>
<path d="M12450 6900 c-9 -6 -10 -10 -3 -10 6 0 15 5 18 10 8 12 4 12 -15 0z"/>
<path d="M12395 6860 c3 -5 8 -10 11 -10 2 0 4 5 4 10 0 6 -5 10 -11 10 -5 0
-7 -4 -4 -10z"/>
<path d="M7830 6820 c-8 -5 -10 -10 -5 -10 6 0 17 5 25 10 8 5 11 10 5 10 -5
0 -17 -5 -25 -10z"/>
<path d="M12350 6826 c0 -2 7 -7 16 -10 8 -3 12 -2 9 4 -6 10 -25 14 -25 6z"/>
<path d="M7940 6759 c0 -5 5 -7 10 -4 6 3 10 2 10 -4 0 -5 9 -9 20 -8 13 1 16
5 10 11 -14 14 -50 18 -50 5z"/>
<path d="M12150 6735 c0 -8 4 -15 10 -15 5 0 7 7 4 15 -4 8 -8 15 -10 15 -2 0
-4 -7 -4 -15z"/>
<path d="M12178 6743 c7 -3 16 -2 19 1 4 3 -2 6 -13 5 -11 0 -14 -3 -6 -6z"/>
<path d="M8031 6714 c0 -11 3 -14 6 -6 3 7 2 16 -1 19 -3 4 -6 -2 -5 -13z"/>
<path d="M8117 6684 c-3 -5 3 -15 14 -22 16 -10 19 -9 19 4 0 8 -4 13 -9 10
-5 -4 -11 -1 -13 6 -3 7 -7 8 -11 2z"/>
<path d="M11980 6642 c0 -5 7 -9 15 -9 8 0 15 4 15 9 0 4 -7 8 -15 8 -8 0 -15
-4 -15 -8z"/>
<path d="M8245 6630 c-3 -6 1 -7 9 -4 18 7 21 14 7 14 -6 0 -13 -4 -16 -10z"/>
<path d="M8287 6595 c3 -8 9 -12 14 -9 12 7 11 11 -5 17 -10 4 -13 1 -9 -8z"/>
<path d="M11745 6550 c-3 -5 -16 -10 -28 -11 -12 0 -16 -3 -9 -6 6 -2 12 -11
12 -18 0 -7 9 -15 21 -18 19 -5 20 -4 5 12 -14 15 -14 20 -3 29 8 7 18 8 22 4
5 -4 5 -1 1 6 -9 15 -13 15 -21 2z"/>
<path d="M8568 6493 c7 -3 16 -2 19 1 4 3 -2 6 -13 5 -11 0 -14 -3 -6 -6z"/>
<path d="M11642 6486 c7 -8 15 -12 17 -11 5 6 -10 25 -20 25 -5 0 -4 -6 3 -14z"/>
<path d="M11570 6481 c0 -5 -8 -11 -17 -13 -10 -2 -13 -6 -8 -10 6 -3 18 0 28
7 12 8 14 15 8 20 -6 3 -11 2 -11 -4z"/>
<path d="M10960 6289 c0 -5 5 -7 10 -4 6 3 10 8 10 11 0 2 -4 4 -10 4 -5 0
-10 -5 -10 -11z"/>
<path d="M10820 6260 c6 -11 15 -20 20 -20 6 0 2 9 -7 20 -10 11 -19 20 -21
20 -1 0 2 -9 8 -20z"/>
<path d="M10465 6241 c-3 -6 0 -11 7 -12 7 0 3 -4 -9 -9 -13 -5 -23 -14 -23
-20 0 -6 13 -4 31 6 18 9 28 19 23 23 -5 3 -12 10 -15 14 -4 5 -10 4 -14 -2z"/>
<path d="M10180 6231 c0 -7 -5 -9 -12 -5 -7 5 -8 3 -3 -5 5 -9 10 -10 18 -2 6
6 8 14 4 18 -4 3 -7 1 -7 -6z"/>
<path d="M10274 6214 c3 -9 6 -21 6 -27 0 -7 5 -4 11 6 11 18 5 37 -13 37 -5
0 -7 -7 -4 -16z"/>
<path d="M10057 6198 c19 -21 31 -24 14 -4 -9 11 -9 15 1 19 7 3 3 4 -9 4 -21
-1 -21 -2 -6 -19z"/>
</g>
</svg>
